<svg xmlns="http://www.w3.org/2000/svg" xmlns:xlink="http://www.w3.org/1999/xlink" width="477" zoomAndPan="magnify" viewBox="0 0 357.75 209.999996" height="280" preserveAspectRatio="xMidYMid meet" version="1.0"><defs><g/><clipPath id="cb9252d783"><path d="M 0.742188 0.476562 L 132.0625 0.476562 L 132.0625 131.796875 L 0.742188 131.796875 Z M 0.742188 0.476562 " clip-rule="nonzero"/></clipPath><clipPath id="08a6704dfb"><path d="M 32.21875 0.476562 L 100.585938 0.476562 C 108.933594 0.476562 116.941406 3.792969 122.84375 9.695312 C 128.746094 15.597656 132.0625 23.605469 132.0625 31.953125 L 132.0625 100.316406 C 132.0625 108.667969 128.746094 116.671875 122.84375 122.578125 C 116.941406 128.480469 108.933594 131.796875 100.585938 131.796875 L 32.21875 131.796875 C 23.871094 131.796875 15.863281 128.480469 9.960938 122.578125 C 4.058594 116.671875 0.742188 108.667969 0.742188 100.316406 L 0.742188 31.953125 C 0.742188 23.605469 4.058594 15.597656 9.960938 9.695312 C 15.863281 3.792969 23.871094 0.476562 32.21875 0.476562 Z M 32.21875 0.476562 " clip-rule="nonzero"/></clipPath><clipPath id="c9db0a5fc2"><path d="M 0.742188 0.476562 L 132.0625 0.476562 L 132.0625 131.796875 L 0.742188 131.796875 Z M 0.742188 0.476562 " clip-rule="nonzero"/></clipPath><clipPath id="37a0b3c01b"><path d="M 32.21875 0.476562 L 100.585938 0.476562 C 108.933594 0.476562 116.941406 3.792969 122.84375 9.695312 C 128.746094 15.597656 132.0625 23.605469 132.0625 31.953125 L 132.0625 100.316406 C 132.0625 108.667969 128.746094 116.671875 122.84375 122.578125 C 116.941406 128.480469 108.933594 131.796875 100.585938 131.796875 L 32.21875 131.796875 C 23.871094 131.796875 15.863281 128.480469 9.960938 122.578125 C 4.058594 116.671875 0.742188 108.667969 0.742188 100.316406 L 0.742188 31.953125 C 0.742188 23.605469 4.058594 15.597656 9.960938 9.695312 C 15.863281 3.792969 23.871094 0.476562 32.21875 0.476562 Z M 32.21875 0.476562 " clip-rule="nonzero"/></clipPath><linearGradient x1="0" gradientTransform="matrix(0.512972, 0, 0, 0.512972, 0.741902, 0.475302)" y1="128" x2="255.999998" gradientUnits="userSpaceOnUse" y2="128" id="b8459f81b1"><stop stop-opacity="1" stop-color="rgb(47.44873%, 32.159424%, 94.119263%)" offset="0"/><stop stop-opacity="1" stop-color="rgb(47.314453%, 32.281494%, 94.143677%)" offset="0.0625"/><stop stop-opacity="1" stop-color="rgb(47.044373%, 32.525635%, 94.192505%)" offset="0.125"/><stop stop-opacity="1" stop-color="rgb(46.775818%, 32.771301%, 94.241333%)" offset="0.1875"/><stop stop-opacity="1" stop-color="rgb(46.505737%, 33.016968%, 94.290161%)" offset="0.25"/><stop stop-opacity="1" stop-color="rgb(46.237183%, 33.261108%, 94.338989%)" offset="0.3125"/><stop stop-opacity="1" stop-color="rgb(45.967102%, 33.506775%, 94.387817%)" offset="0.375"/><stop stop-opacity="1" stop-color="rgb(45.698547%, 33.750916%, 94.436646%)" offset="0.4375"/><stop stop-opacity="1" stop-color="rgb(45.428467%, 33.996582%, 94.485474%)" offset="0.5"/><stop stop-opacity="1" stop-color="rgb(45.158386%, 34.240723%, 94.534302%)" offset="0.5625"/><stop stop-opacity="1" stop-color="rgb(44.889832%, 34.486389%, 94.581604%)" offset="0.625"/><stop stop-opacity="1" stop-color="rgb(44.619751%, 34.732056%, 94.630432%)" offset="0.6875"/><stop stop-opacity="1" stop-color="rgb(44.351196%, 34.976196%, 94.67926%)" offset="0.75"/><stop stop-opacity="1" stop-color="rgb(44.081116%, 35.221863%, 94.728088%)" offset="0.8125"/><stop stop-opacity="1" stop-color="rgb(43.812561%, 35.466003%, 94.776917%)" offset="0.875"/><stop stop-opacity="1" stop-color="rgb(43.54248%, 35.71167%, 94.825745%)" offset="0.9375"/><stop stop-opacity="1" stop-color="rgb(43.273926%, 35.955811%, 94.874573%)" offset="1"/></linearGradient><clipPath id="aa08cccd84"><rect x="0" width="133" y="0" height="132"/></clipPath><clipPath id="792c206e46"><path d="M 22.519531 22.414062 L 110.066406 22.414062 L 110.066406 109.855469 L 22.519531 109.855469 Z M 22.519531 22.414062 " clip-rule="nonzero"/></clipPath><clipPath id="dd706f66b3"><rect x="0" width="133" y="0" height="133"/></clipPath><clipPath id="661f6b429c"><rect x="0" width="85" y="0" height="92"/></clipPath><clipPath id="f2c234554e"><rect x="0" width="145" y="0" height="91"/></clipPath><clipPath id="5095f21438"><rect x="0" width="28" y="0" height="98"/></clipPath></defs><g transform="matrix(1, 0, 0, 1, 9, 46)"><g clip-path="url(#dd706f66b3)"><g clip-path="url(#cb9252d783)"><g clip-path="url(#08a6704dfb)"><g transform="matrix(1, 0, 0, 1, -0.000000000000001776, -0.000000000000007105)"><g clip-path="url(#aa08cccd84)"><g clip-path="url(#c9db0a5fc2)"><g clip-path="url(#37a0b3c01b)"><path fill="url(#b8459f81b1)" d="M 0.742188 0.476562 L 0.742188 131.796875 L 132.0625 131.796875 L 132.0625 0.476562 Z M 0.742188 0.476562 " fill-rule="nonzero"/></g></g></g></g></g></g><g clip-path="url(#792c206e46)"><path fill="#ffffff" d="M 43.933594 52.460938 C 49.464844 51.414062 55.328125 51.414062 61.214844 51.800781 C 66.75 51.800781 71.566406 52.460938 77.097656 53.179688 L 77.097656 65.96875 L 109.933594 44.191406 L 77.097656 22.414062 L 77.097656 34.875 C 71.566406 35.867188 65.703125 36.582031 60.167969 37.632812 C 53.617188 39.011719 47.042969 40.71875 40.820312 43.863281 C 34.601562 46.617188 28.738281 51.414062 25.628906 57.644531 C 22.519531 63.875 22.519531 70.4375 22.519531 76.996094 C 23.207031 70.765625 25.628906 64.589844 29.425781 60.457031 C 33.226562 56.265625 38.398438 53.839844 43.933594 52.460938 Z M 102.996094 71.8125 C 99.195312 76.003906 94.023438 78.375 88.847656 79.808594 C 83.316406 80.800781 77.453125 80.800781 71.234375 80.46875 C 66.058594 80.136719 60.859375 79.808594 55.328125 78.761719 L 55.328125 65.96875 L 22.875 87.746094 L 55.328125 109.855469 L 55.328125 97.066406 C 60.859375 96.347656 66.75 95.683594 72.25 94.308594 C 78.828125 93.261719 85.738281 91.21875 91.601562 88.410156 C 98.179688 85.320312 103.710938 80.46875 107.152344 74.238281 C 110.261719 68.066406 110.261719 61.835938 110.261719 54.886719 C 109.214844 61.449219 107.152344 67.347656 102.996094 71.8125 " fill-opacity="1" fill-rule="evenodd"/></g></g></g><g transform="matrix(1, 0, 0, 1, 153, 37)"><g clip-path="url(#661f6b429c)"><g fill="#000000" fill-opacity="1"><g transform="translate(0.736121, 70.54164)"><g><path d="M 14.984375 0.5 C 10.710938 0.5 7.460938 -0.804688 5.234375 -3.421875 C 3.015625 -6.035156 1.90625 -9.707031 1.90625 -14.4375 L 1.90625 -39.671875 C 1.90625 -44.234375 3.015625 -47.675781 5.234375 -50 C 7.460938 -52.320312 10.710938 -53.484375 14.984375 -53.484375 C 19.265625 -53.484375 22.515625 -52.320312 24.734375 -50 C 26.953125 -47.675781 28.0625 -44.234375 28.0625 -39.671875 L 28.0625 -14.4375 C 28.0625 -9.664062 26.953125 -5.984375 24.734375 -3.390625 C 22.515625 -0.796875 19.265625 0.5 14.984375 0.5 Z M 14.984375 -9.25 C 15.929688 -9.25 16.566406 -9.660156 16.890625 -10.484375 C 17.222656 -11.304688 17.390625 -12.457031 17.390625 -13.9375 L 17.390625 -39.84375 C 17.390625 -41 17.234375 -41.9375 16.921875 -42.65625 C 16.617188 -43.375 15.992188 -43.734375 15.046875 -43.734375 C 13.285156 -43.734375 12.40625 -42.398438 12.40625 -39.734375 L 12.40625 -13.875 C 12.40625 -12.351562 12.585938 -11.203125 12.953125 -10.421875 C 13.328125 -9.640625 14.003906 -9.25 14.984375 -9.25 Z M 14.984375 -9.25 "/></g></g></g><g fill="#000000" fill-opacity="1"><g transform="translate(30.707489, 70.54164)"><g><path d="M 8.765625 0 L 8.765625 -17.453125 L 0.3125 -52.984375 L 10.796875 -52.984375 L 13.75 -35.03125 L 16.71875 -52.984375 L 27.203125 -52.984375 L 18.75 -17.453125 L 18.75 0 Z M 8.765625 0 "/></g></g></g><g fill="#000000" fill-opacity="1"><g transform="translate(58.212077, 70.54164)"><g><path d="M 2.34375 0 L 2.34375 -52.984375 L 23.5625 -52.984375 L 23.5625 -42.75 L 13.140625 -42.75 L 13.140625 -32.453125 L 23.125 -32.453125 L 23.125 -22.453125 L 13.140625 -22.453125 L 13.140625 -10.296875 L 24.25 -10.296875 L 24.25 0 Z M 2.34375 0 "/></g></g></g></g></g><g transform="matrix(1, 0, 0, 1, 153, 100)"><g clip-path="url(#f2c234554e)"><g fill="#000000" fill-opacity="1"><g transform="translate(0.736121, 70.605847)"><g><path d="M 14.8125 0.484375 C 10.039062 0.484375 6.59375 -0.695312 4.46875 -3.0625 C 2.34375 -5.425781 1.28125 -9.238281 1.28125 -14.5 L 1.28125 -19.640625 L 11.625 -19.640625 L 11.625 -13.09375 C 11.625 -10.476562 12.460938 -9.171875 14.140625 -9.171875 C 15.078125 -9.171875 15.726562 -9.445312 16.09375 -10 C 16.457031 -10.550781 16.640625 -11.476562 16.640625 -12.78125 C 16.640625 -14.5 16.4375 -15.914062 16.03125 -17.03125 C 15.625 -18.15625 15.101562 -19.09375 14.46875 -19.84375 C 13.832031 -20.601562 12.703125 -21.78125 11.078125 -23.375 L 6.546875 -27.90625 C 3.035156 -31.332031 1.28125 -35.125 1.28125 -39.28125 C 1.28125 -43.769531 2.3125 -47.1875 4.375 -49.53125 C 6.4375 -51.875 9.445312 -53.046875 13.40625 -53.046875 C 18.132812 -53.046875 21.535156 -51.789062 23.609375 -49.28125 C 25.691406 -46.78125 26.734375 -42.859375 26.734375 -37.515625 L 16.03125 -37.515625 L 15.96875 -41.125 C 15.96875 -41.8125 15.773438 -42.359375 15.390625 -42.765625 C 15.003906 -43.171875 14.460938 -43.375 13.765625 -43.375 C 12.953125 -43.375 12.335938 -43.148438 11.921875 -42.703125 C 11.515625 -42.253906 11.3125 -41.644531 11.3125 -40.875 C 11.3125 -39.15625 12.289062 -37.378906 14.25 -35.546875 L 20.375 -29.671875 C 21.800781 -28.285156 22.984375 -26.96875 23.921875 -25.71875 C 24.859375 -24.476562 25.613281 -23.007812 26.1875 -21.3125 C 26.757812 -19.625 27.046875 -17.617188 27.046875 -15.296875 C 27.046875 -10.117188 26.097656 -6.191406 24.203125 -3.515625 C 22.304688 -0.847656 19.175781 0.484375 14.8125 0.484375 Z M 14.8125 0.484375 "/></g></g></g><g fill="#000000" fill-opacity="1"><g transform="translate(28.939475, 70.605847)"><g><path d="M 6.421875 0 L 0.796875 -52.5625 L 11.078125 -52.5625 L 14.015625 -19.390625 L 16.953125 -52.5625 L 26.734375 -52.5625 L 29.546875 -19.390625 L 32.375 -52.5625 L 42.765625 -52.5625 L 37.015625 0 L 24.40625 0 L 21.78125 -25.328125 L 19.28125 0 Z M 6.421875 0 "/></g></g></g><g fill="#000000" fill-opacity="1"><g transform="translate(71.213901, 70.605847)"><g><path d="M 0.921875 0 L 6 -52.5625 L 23.796875 -52.5625 L 28.8125 0 L 18.84375 0 L 18.109375 -8.5 L 11.75 -8.5 L 11.140625 0 Z M 12.546875 -16.890625 L 17.3125 -16.890625 L 14.984375 -43.625 L 14.5 -43.625 Z M 12.546875 -16.890625 "/></g></g></g><g fill="#000000" fill-opacity="1"><g transform="translate(100.885543, 70.605847)"><g><path d="M 2.328125 -52.5625 L 16.21875 -52.5625 C 20.414062 -52.5625 23.410156 -51.203125 25.203125 -48.484375 C 27.003906 -45.773438 27.90625 -41.8125 27.90625 -36.59375 C 27.90625 -31.375 27.109375 -27.4375 25.515625 -24.78125 C 23.921875 -22.125 21.066406 -20.796875 16.953125 -20.796875 L 12.671875 -20.796875 L 12.671875 0 L 2.328125 0 Z M 13.28125 -30.28125 C 14.539062 -30.28125 15.46875 -30.515625 16.0625 -30.984375 C 16.65625 -31.453125 17.039062 -32.125 17.21875 -33 C 17.40625 -33.882812 17.5 -35.144531 17.5 -36.78125 C 17.5 -38.976562 17.253906 -40.566406 16.765625 -41.546875 C 16.273438 -42.523438 15.296875 -43.015625 13.828125 -43.015625 L 12.671875 -43.015625 L 12.671875 -30.28125 Z M 13.28125 -30.28125 "/></g></g></g><g fill="#000000" fill-opacity="1"><g transform="translate(129.764755, 70.605847)"><g/></g></g></g></g><g transform="matrix(1, 0, 0, 1, 277, 102)"><g clip-path="url(#5095f21438)"><g fill="#fb5ab2" fill-opacity="1"><g transform="translate(0.182891, 70.190488)"><g><path d="M 13.40625 -16.484375 C 15.863281 -16.484375 17.953125 -15.625 19.671875 -13.90625 C 21.390625 -12.1875 22.25 -10.09375 22.25 -7.625 C 22.25 -5.207031 21.390625 -3.140625 19.671875 -1.421875 C 17.953125 0.296875 15.863281 1.15625 13.40625 1.15625 C 10.988281 1.15625 8.921875 0.296875 7.203125 -1.421875 C 5.484375 -3.140625 4.625 -5.207031 4.625 -7.625 C 4.625 -10.09375 5.484375 -12.1875 7.203125 -13.90625 C 8.921875 -15.625 10.988281 -16.484375 13.40625 -16.484375 Z M 13.40625 -16.484375 "/></g></g></g></g></g></svg>